<svg xmlns="http://www.w3.org/2000/svg" width="30" height="19">
    <path fill-rule="evenodd" fill="#FFF" d="m29.269 10.691-11.975 7.83c-.666.436-1.618.547-2.456.369-.786.123-1.641.011-2.255-.39L.689 10.722c-.938-.614-.938-1.609 0-2.223.938-.613 2.46-.613 3.398 0l10.845 7.092 10.915-7.138c.945-.617 2.477-.617 3.422 0 .944.618.944 1.62 0 2.238zM16.682 7.652c-.488.316-1.187.398-1.801.268-.576.089-1.204.008-1.653-.284L4.505 1.979c-.688-.446-.688-1.17 0-1.616.688-.446 1.804-.446 2.492 0l7.953 5.158L22.955.33c.692-.45 1.816-.45 2.509 0 .693.449.693 1.177 0 1.627l-8.782 5.695z"/>
</svg>
